HIERARCHY
ROOT root
{
	OFFSET	0	13.1	24.9
	CHANNELS 6  Xposition Yposition Zposition Xrotation Yrotation Zrotation
	JOINT spine_1
	{
		OFFSET	0	9.99999	0
		CHANNELS 3  Xrotation Yrotation Zrotation
		JOINT spine_2
		{
			OFFSET	0	112	-10
			CHANNELS 3  Xrotation Yrotation Zrotation
			JOINT spine_3
			{
				OFFSET	0	206.5	19.3
				CHANNELS 3  Xrotation Yrotation Zrotation
				JOINT spine_4
				{
					OFFSET	0	110.4	14.6
					CHANNELS 3  Xrotation Yrotation Zrotation
					JOINT neck_1
					{
						OFFSET	0	71.8	-50.3
						CHANNELS 3  Xrotation Yrotation Zrotation
						JOINT neck_2
						{
							OFFSET	0	86.2	-25.8
							CHANNELS 3  Xrotation Yrotation Zrotation
							JOINT head_ee
							{
								OFFSET	0	179.8	-8.7
								CHANNELS 3  Xrotation Yrotation Zrotation
								End Site
								{
									OFFSET	1	0	0
								}
							}
						}
					}
					JOINT left_clavicle
					{
						OFFSET	-43.2	22.4	-70.8
						CHANNELS 3  Xrotation Yrotation Zrotation
						JOINT left_shoulder
						{
							OFFSET	-93.9	-5.79999	48.7
							CHANNELS 3  Xrotation Yrotation Zrotation
							JOINT left_elbow
							{
								OFFSET	-291.4	-30.8	15.2
								CHANNELS 3  Xrotation Yrotation Zrotation
								JOINT left_lowarm_twist
								{
									OFFSET	-110.7	-3.89999	13.6
									CHANNELS 3  Xrotation Yrotation Zrotation
									JOINT left_hand
									{
										OFFSET	-110.7	-3.89999	13.6
										CHANNELS 3  Xrotation Yrotation Zrotation
										JOINT left_ee
										{
											OFFSET	-80.8	-5.10001	12.1
											CHANNELS 3  Xrotation Yrotation Zrotation
											End Site
											{
												OFFSET	1	0	0
											}
										}
									}
								}
							}
						}
					}
					JOINT right_clavicle
					{
						OFFSET	43.2	22.4	-70.8
						CHANNELS 3  Xrotation Yrotation Zrotation
						JOINT right_shoulder
						{
							OFFSET	93.9	-5.79999	48.7
							CHANNELS 3  Xrotation Yrotation Zrotation
							JOINT right_elbow
							{
								OFFSET	291.4	-30.8	15.2
								CHANNELS 3  Xrotation Yrotation Zrotation
								JOINT right_lowarm_twist
								{
									OFFSET	110.7	-3.89999	13.6
									CHANNELS 3  Xrotation Yrotation Zrotation
									JOINT right_hand
									{
										OFFSET	110.7	-3.89999	13.6
										CHANNELS 3  Xrotation Yrotation Zrotation
										JOINT right_ee
										{
											OFFSET	80.8	-5.10001	12.1
											CHANNELS 3  Xrotation Yrotation Zrotation
											End Site
											{
												OFFSET	1	0	0
											}
										}
									}
								}
							}
						}
					}
				}
			}
		}
	}
	JOINT left_hip
	{
		OFFSET	-82.8	-127.5	0.300001
		CHANNELS 3  Xrotation Yrotation Zrotation
		JOINT left_knee
		{
			OFFSET	-28.2	-396.7	2.2
			CHANNELS 3  Xrotation Yrotation Zrotation
			JOINT left_ankle
			{
				OFFSET	-11.7	-411.3	35.4
				CHANNELS 3  Xrotation Yrotation Zrotation
				JOINT left_toes
				{
					OFFSET	0	-60	-88.6
					CHANNELS 3  Xrotation Yrotation Zrotation
					JOINT left_foot_ee
					{
						OFFSET	-22.5	-16.5	-42.2
						CHANNELS 3  Xrotation Yrotation Zrotation
						End Site
						{
							OFFSET	1	0	0
						}
					}
				}
			}
		}
	}
	JOINT right_hip
	{
		OFFSET	82.8	-127.5	0.300001
		CHANNELS 3  Xrotation Yrotation Zrotation
		JOINT right_knee
		{
			OFFSET	28.2	-396.7	2.2
			CHANNELS 3  Xrotation Yrotation Zrotation
			JOINT right_ankle
			{
				OFFSET	11.7	-411.3	35.4
				CHANNELS 3  Xrotation Yrotation Zrotation
				JOINT right_toes
				{
					OFFSET	0	-60	-88.6
					CHANNELS 3  Xrotation Yrotation Zrotation
					JOINT right_foot_ee
					{
						OFFSET	22.5	-16.5	-42.2
						CHANNELS 3  Xrotation Yrotation Zrotation
						End Site
						{
							OFFSET	1	0	0
						}
					}
				}
			}
		}
	}
}
MOTION
Frames: 14
Frame Time: 0.02
2812.35318781 709.221 -1627.95358399 2.09402013494 53.739074438 -10.8405983268 0.844748 0.70188 3.61753 0.851904 0.470423 3.65479 0.884247 -0.251545 3.67631 0.865543 0.331815 3.66995 -10.457 17.2826 6.6784 -10.6566 28.2312 11.0009 -0.0 0.0 -0.0 0.588222 9.19835 2.11453 -1.94854 -17.3584 53.0701 1.24734 -31.7104 0.354274 -43.6231 -3.34446 4.30856 -2.50283 18.9667 -7.36149 -0.0 0.0 -0.0 12.4422 19.802 -24.9659 -15.0967 13.0619 -64.0875 0.161089 4.56259 -0.0064174 59.6946 1.74682 7.07969 0.470955 -14.3222 -8.83301 0.0 0.0 0.0 -0.665771 -7.10743 13.8791 3.98626 -0.18456 -0.583654 21.3052 27.9466 -3.09483 -20.0861 0.0 0.0 -0.0 0.0 -0.0 5.84574 27.1726 13.179 -48.8333 1.12209 -7.18731 34.1799 -17.9683 4.41884 36.3458 -0.0 -0.0 0.0 0.0 0.0 
2801.17171566 710.128 -1620.70436364 3.58443824597 53.9358050635 -12.1632547024 0.767224 0.701995 3.71209 0.774769 0.464533 3.74916 0.807765 -0.280808 3.76736 0.788103 0.317267 3.76446 -11.7414 16.7405 5.98287 -12.0714 27.9263 10.5238 -0.0 0.0 -0.0 0.931156 9.27446 2.71892 -1.49306 -17.982 50.0114 1.3496 -33.7632 0.409584 -44.1479 -3.4027 4.3424 -2.88377 19.4563 -9.40727 -0.0 0.0 -0.0 12.4765 19.9844 -25.0323 -15.9682 11.9789 -64.1878 0.164643 4.66279 -0.00670309 59.562 1.73509 7.06738 -0.527819 -15.3643 -3.01178 0.0 0.0 0.0 -2.91301 -4.87818 14.4311 3.27915 -0.148858 -0.48106 22.1657 27.3149 -3.19489 -18.6894 0.0 0.0 -0.0 0.0 -0.0 12.0292 25.1642 9.57256 -51.2877 1.33616 -7.49879 28.6666 -25.7696 3.97003 35.2659 -0.0 -0.0 0.0 0.0 0.0 
2791.2594873 709.371 -1601.99121662 3.9369070045 55.9646839153 -12.088052442 0.790814 0.668223 3.61768 0.797988 0.436825 3.6528 0.828238 -0.287769 3.66754 0.809592 0.294661 3.66699 -13.3981 16.4989 5.34232 -13.9106 28.176 10.2999 -0.0 0.0 -0.0 1.17833 9.38222 3.15866 -0.69827 -17.8915 47.5307 1.49718 -36.5604 0.494596 -44.6884 -3.46301 4.37669 -3.14481 19.6774 -10.8696 -0.0 0.0 -0.0 12.3908 20.1328 -24.8239 -16.907 10.4728 -63.8972 0.180331 5.10484 -0.00803875 58.8541 1.67298 7.00122 -1.65434 -17.1418 3.11268 0.0 0.0 0.0 -6.35779 -1.84406 15.7121 4.98827 -0.237318 -0.728281 24.5723 26.8174 -3.49318 -17.1399 0.0 0.0 -0.0 0.0 -0.0 15.8382 23.3795 7.13803 -53.2789 1.51957 -7.74467 25.1089 -29.4197 3.62457 34.9048 -0.0 -0.0 0.0 0.0 0.0 
2779.90595812 709.842 -1587.79878243 5.40187804772 57.4062678913 -13.4512430012 0.730622 0.672297 3.63033 0.737845 0.440087 3.66568 0.768544 -0.290933 3.68051 0.749765 0.293581 3.6803 -14.4949 16.8843 5.29239 -15.1661 29.1302 10.7106 -0.0 0.0 -0.0 1.3211 9.33646 3.40272 0.396135 -17.5847 45.4681 1.59822 -38.3662 0.556061 -44.6482 -3.45851 4.37416 -3.41137 20.5454 -11.9915 -0.0 0.0 -0.0 12.3361 20.1928 -24.6933 -17.788 9.33647 -64.3654 0.175751 4.97586 -0.00763632 58.3418 1.62854 6.95287 -2.29812 -17.7413 6.74567 0.0 0.0 0.0 -8.62004 -0.645339 16.0147 4.77692 -0.225979 -0.69785 25.2417 26.6456 -3.57345 -17.6752 0.0 0.0 -0.0 0.0 -0.0 18.6875 22.152 5.66754 -53.4427 1.53504 -7.76461 20.1491 -29.1373 2.96483 33.2485 -0.0 -0.0 0.0 0.0 0.0 
2752.29141194 712.436 -1563.80472291 4.3740274158 57.0536973103 -11.337885604 0.577365 0.887384 3.53882 0.584088 0.660551 3.58802 0.628489 -0.0679504 3.64761 0.610285 0.508592 3.61267 -13.6509 18.2322 2.70428 -14.5387 33.1378 8.59754 -0.0 0.0 -0.0 1.17925 8.70748 3.09891 3.32296 -18.297 41.314 1.88202 -42.9889 0.741193 -45.1855 -3.51874 4.40772 -3.61795 19.7085 -13.7473 -0.0 0.0 -0.0 12.5645 21.8618 -25.0893 -18.5973 4.03476 -64.0519 0.175173 4.95959 -0.00758631 57.678 1.57162 6.88964 -3.93652 -18.3102 16.587 0.0 0.0 0.0 -13.447 6.8692 17.0255 7.47464 -0.379117 -1.08306 28.0768 27.5469 -3.94461 -17.2015 0.0 0.0 -0.0 0.0 -0.0 23.1675 14.1069 2.06016 -29.9575 -0.0456934 -4.54512 15.9586 -21.8447 2.28929 17.108 -0.0 -0.0 0.0 0.0 0.0 
2735.95259714 711.725 -1558.23521384 3.42602937731 57.4358915355 -10.3401551121 0.719119 0.949129 3.57599 0.725944 0.71981 3.62905 0.774409 -0.00850638 3.69964 0.755773 0.575493 3.65468 -14.3389 18.2736 3.09767 -15.309 33.0728 9.21083 -0.0 0.0 -0.0 1.13704 8.6376 3.0185 4.09589 -18.0798 40.3533 1.95421 -44.0655 0.790917 -45.1974 -3.52009 4.40846 -3.67935 19.5994 -14.1916 -0.0 0.0 -0.0 12.5853 22.1526 -25.1122 -19.5031 2.00379 -64.6809 0.180727 5.11601 -0.008074 57.9711 1.59666 6.91763 -4.46005 -18.9281 19.5349 0.0 0.0 0.0 -14.2622 7.71483 17.7934 6.75424 -0.336445 -0.980892 30.1536 27.0523 -4.17854 -16.3108 0.0 0.0 -0.0 0.0 -0.0 23.9251 11.6404 0.426968 -25.1116 -0.200057 -3.81766 15.0704 -20.6342 2.15794 14.4215 -0.0 -0.0 0.0 0.0 0.0 
2719.83316656 708.609 -1556.03510241 5.1637553246 57.9973157483 -12.3364991178 0.621154 0.773042 3.70313 0.628622 0.536005 3.74474 0.666658 -0.219018 3.77651 0.64696 0.379728 3.76377 -13.7487 18.4458 2.67858 -14.6794 33.575 8.69141 -0.0 0.0 -0.0 1.10783 8.62444 2.96604 4.90459 -18.3393 39.6735 1.99537 -44.6621 0.819693 -45.2031 -3.52072 4.40881 -3.70571 19.5864 -14.3625 -0.0 0.0 -0.0 12.6071 22.4107 -25.1398 -20.0597 0.550568 -65.1335 0.207398 5.86607 -0.0106262 58.1558 1.61252 6.93522 -4.83532 -19.3769 21.6609 0.0 0.0 0.0 -16.0296 8.42353 19.0601 5.10393 -0.243571 -0.744915 30.593 26.6016 -4.21729 -16.1925 0.0 0.0 -0.0 0.0 -0.0 25.3826 10.3598 -1.10627 -21.6494 -0.272393 -3.29137 13.5944 -17.525 1.93576 12.4731 -0.0 -0.0 0.0 0.0 0.0 
2706.58392931 706.522 -1558.46265504 5.3654136915 57.7567423082 -12.8606158583 0.65929 0.687298 3.77139 0.667091 0.4461 3.80741 0.699618 -0.317601 3.82025 0.679373 0.289269 3.8225 -13.558 18.5775 2.58875 -14.4818 33.8557 8.59348 -0.0 0.0 -0.0 0.995318 8.61491 2.76778 5.48032 -18.4185 39.1059 2.05446 -45.4978 0.861537 -45.2214 -3.52279 4.40994 -3.72076 19.523 -14.4939 -0.0 0.0 -0.0 12.6467 22.8005 -25.1959 -20.6226 -0.344786 -65.2981 0.222286 6.2839 -0.0122018 58.2981 1.62478 6.94873 -5.10266 -19.7451 23.1513 0.0 0.0 0.0 -16.819 9.06752 20.1053 4.12416 -0.19167 -0.603612 30.8284 26.15 -4.23221 -16.1056 0.0 0.0 -0.0 0.0 -0.0 25.7623 9.4441 -1.88184 -18.9176 -0.306948 -2.87367 12.5719 -15.816 1.78832 11.0919 -0.0 -0.0 0.0 0.0 0.0 
2690.67250058 705.101 -1556.81183187 4.87556051448 57.1238951062 -12.6952623027 0.65226 0.637209 3.93475 0.660788 0.385742 3.96726 0.690526 -0.409283 3.9649 0.668663 0.221524 3.97979 -13.3919 18.6655 2.43106 -14.3101 34.0976 8.4241 -0.0 0.0 -0.0 0.860182 8.64859 2.53404 5.76723 -18.3033 38.612 2.07288 -45.7533 0.874702 -45.1707 -3.51708 4.4068 -3.7195 19.525 -14.4849 -0.0 0.0 -0.0 12.5306 22.8951 -24.9192 -20.9765 -1.13346 -65.4538 0.23741 6.70768 -0.0139128 58.3916 1.63285 6.95759 -5.30109 -20.0348 24.2508 0.0 0.0 0.0 -17.5872 9.50685 20.703 3.19584 -0.144736 -0.468946 30.9812 26.003 -4.24582 -16.0689 0.0 0.0 -0.0 0.0 -0.0 26.5364 8.92748 -1.93694 -15.3357 -0.322024 -2.3244 11.8581 -14.3015 1.68535 10.1041 -0.0 -0.0 0.0 0.0 0.0 
2676.37827109 701.061 -1563.61833786 4.58972402244 56.6388475816 -12.794589453 0.782269 0.604683 4.00688 0.791132 0.348703 4.03717 0.818455 -0.450574 4.02709 0.79588 0.190546 4.0477 -13.2888 18.7377 2.36703 -14.2034 34.261 8.35633 -0.0 0.0 -0.0 0.921127 8.49278 2.62577 6.30354 -18.5076 38.8582 2.13786 -46.6363 0.921598 -45.1998 -3.52036 4.40861 -3.72437 19.4777 -14.5436 -0.0 0.0 -0.0 12.7216 23.0412 -25.3467 -20.838 -1.53002 -65.8693 0.238674 6.74306 -0.0140609 58.4874 1.64113 6.96665 -5.44214 -20.2552 25.024 0.0 0.0 0.0 -18.4079 9.72363 21.2381 2.59697 -0.115622 -0.381682 30.8371 25.8399 -4.22497 -16.1873 0.0 0.0 -0.0 0.0 -0.0 26.9605 8.41507 -2.30007 -13.1962 -0.314643 -1.99623 11.4209 -12.9856 1.62188 9.41123 -0.0 -0.0 0.0 0.0 0.0 
2664.51552691 695.128 -1566.63202194 4.7712765601 56.6648670409 -13.1026777047 0.664389 0.596584 4.13348 0.673831 0.332584 4.163 0.701183 -0.499681 4.14629 0.677235 0.16083 4.17315 -13.5251 18.8466 2.76899 -14.4673 34.2572 8.85164 -0.0 0.0 -0.0 0.849031 8.69329 2.5189 6.9806 -18.7159 38.5066 2.2151 -47.6498 0.978226 -45.2627 -3.52743 4.4125 -3.72545 19.4391 -14.5737 -0.0 0.0 -0.0 12.8223 22.8643 -25.5966 -20.6863 -1.88668 -66.1132 0.246568 6.96391 -0.0150029 58.5566 1.64712 6.97319 -5.54023 -20.4177 25.5558 0.0 0.0 0.0 -19.1059 9.83078 21.7119 2.2956 -0.101317 -0.337658 30.825 25.6295 -4.21807 -16.361 0.0 0.0 -0.0 0.0 -0.0 27.5963 7.92224 -3.33638 -9.07765 -0.265979 -1.36629 11.086 -11.7176 1.5734 8.88205 -0.0 -0.0 0.0 0.0 0.0 
2642.14153453 686.8 -1568.09853309 4.37846630644 57.2758270465 -13.7174182521 0.557064 0.640167 4.30783 0.567311 0.365015 4.33976 0.59875 -0.510699 4.32506 0.572698 0.178104 4.35141 -13.9592 18.8911 3.05217 -14.9584 34.2317 9.28425 -0.0 0.0 -0.0 1.02561 8.79513 2.83798 7.88973 -19.1122 39.1191 2.38326 -49.727 1.10455 -45.3348 -3.53554 4.41694 -3.7388 19.3874 -14.6878 -0.0 0.0 -0.0 13.1491 22.588 -26.3814 -19.7534 -2.134 -66.6221 0.256594 7.24414 -0.0162428 58.6631 1.65636 6.98324 -5.65554 -20.6235 26.1705 0.0 0.0 0.0 -20.3769 9.5737 22.5958 1.66359 -0.0720714 -0.245096 30.7185 25.0599 -4.19136 -16.7251 0.0 0.0 -0.0 0.0 -0.0 28.4706 7.40503 -3.79545 -4.22944 -0.150886 -0.631407 10.9473 -9.56987 1.55162 8.32267 -0.0 -0.0 0.0 0.0 0.0 
2611.32099423 675.389 -1574.41924492 2.65907979531 58.655501214 -11.7543737092 0.548333 0.782591 4.31894 0.558565 0.506448 4.35988 0.601182 -0.375571 4.37307 0.574646 0.319106 4.37754 -12.81 18.3642 1.07493 -13.6698 34.28 6.85221 -0.0 0.0 -0.0 1.34436 9.04369 3.41765 8.51027 -18.4801 40.1342 2.82449 -54.436 1.45293 -46.0672 -3.61828 4.46158 -3.46922 19.2782 -13.0847 -0.0 0.0 -0.0 12.7407 20.9729 -25.5699 -19.4032 -2.19128 -67.804 0.390423 10.9463 -0.037409 58.5804 1.64918 6.97544 -6.00065 -22.7249 26.7867 0.0 0.0 0.0 -21.1059 8.93863 21.9136 1.7418 -0.075635 -0.256567 31.6157 21.6219 -4.21378 -17.3775 0.0 0.0 -0.0 0.0 -0.0 28.4015 8.00404 -5.97257 3.21668 0.145766 0.471976 5.75855 -9.49783 0.830027 6.73065 -0.0 -0.0 0.0 0.0 0.0 
2582.47242283 667.747 -1572.96872257 0.374424913647 60.0668965117 -8.98174630478 0.694276 0.67735 4.20775 0.70403 0.408474 4.24224 0.737611 -0.438149 4.23928 0.712617 0.23624 4.25528 -9.80478 17.6552 -1.46449 -10.2068 34.2337 3.15851 -0.0 0.0 -0.0 1.81437 10.4076 4.34163 7.779 -17.0969 41.6396 3.02356 -56.2592 1.61671 -47.9827 -3.83727 4.57326 -3.25329 18.6096 -12.1381 -0.0 0.0 -0.0 12.8205 20.0151 -25.8271 -18.2867 -1.72523 -68.1635 0.450367 12.5769 -0.0496292 57.8594 1.5871 6.90698 -5.92091 -22.104 26.766 0.0 0.0 0.0 -19.986 8.35754 20.588 0.426601 -0.0178014 -0.0630444 35.0933 16.7191 -4.49177 -22.0856 0.0 0.0 -0.0 0.0 -0.0 28.3745 8.15412 -6.54089 3.13106 0.141543 0.45952 2.16043 -7.74027 0.31448 8.3402 -0.0 -0.0 0.0 0.0 0.0 
